<svg xmlns="http://www.w3.org/2000/svg" xmlns:xlink="http://www.w3.org/1999/xlink" width="124" height="124" viewBox="0 0 124 124">
  <defs>
    <linearGradient id="linear-gradient" x1="0.5" x2="0.5" y2="1" gradientUnits="objectBoundingBox">
      <stop offset="0" stop-color="#b5fff8"/>
      <stop offset="1" stop-color="#81d8d0"/>
    </linearGradient>
  </defs>
  <g id="Group_10120" transform="translate(-312 -212)">
    <circle id="Ellipse_1119" cx="62" cy="62" r="62" transform="translate(312 212)" fill="url(#linear-gradient)"/>
    <g id="gift" transform="translate(339.239 239.239)">
      <path id="Path_8044" d="M60.886,13.709V43.15A5.178,5.178,0,0,1,55.733,48.3H33.65V15.925H29.234V48.3H7.153A5.178,5.178,0,0,1,2,43.15V13.709A2.225,2.225,0,0,1,4.209,11.5H58.677a2.225,2.225,0,0,1,2.209,2.209Z" transform="translate(3.888 22.49)" fill="#d32f2f"/>
      <path id="Path_8045" d="M70.662,12.153v7.36a5.178,5.178,0,0,1-5.153,5.153H5.153A5.178,5.178,0,0,1,0,19.513v-7.36A5.178,5.178,0,0,1,5.153,7H65.511a5.178,5.178,0,0,1,5.151,5.153Z" transform="translate(0 13.742)" fill="#f44336"/>
      <path id="Path_8046" d="M13.457,23.766a2.211,2.211,0,0,1-2.184-2.526C12.362,13.88,18.114-.042,32.092-.042c7.98,0,10.809,4.31,10.809,8,0,6.563-9.137,15.81-29.443,15.81Zm18.634-19.4C21.545,4.369,17.54,14.395,16.213,19.3A35.386,35.386,0,0,0,32.8,15.008c4.191-2.487,5.683-5.281,5.683-7.045,0-2.643-3.3-3.582-6.393-3.582Z" transform="translate(21.876 0.049)" fill="#ffc107"/>
      <path id="Path_8047" d="M31.445,23.769C11.135,23.769,2,14.524,2,7.959c0-3.692,2.834-8,10.813-8,13.978,0,19.727,13.92,20.816,21.282a2.211,2.211,0,0,1-2.184,2.526ZM12.813,4.372c-3.091,0-6.4.941-6.4,3.587,0,3.759,6.574,10.609,22.274,11.332C27.36,14.4,23.356,4.372,12.813,4.372Z" transform="translate(3.89 0.046)" fill="#ffc107"/>
      <path id="Path_8048" d="M15.666,13V45.378H11.25V13Z" transform="translate(21.874 25.408)" fill="#ff8f00"/>
      <path id="Path_8049" d="M15.666,9.223V25.152H11.25V9.223a2.668,2.668,0,0,1,.618-1.736,2.085,2.085,0,0,1,3.18,0A2.657,2.657,0,0,1,15.666,9.223Z" transform="translate(21.874 13.256)" fill="#ffc107"/>
      <path id="Path_8050" d="M29.234,13H2V40.234a5.178,5.178,0,0,0,5.153,5.144H29.234Z" transform="translate(3.888 25.408)" fill="#b82929"/>
      <path id="Path_8051" d="M17.564,7H5.153A5.178,5.178,0,0,0,0,12.153v7.36a5.178,5.178,0,0,0,5.153,5.153H33.124V10.036A44.968,44.968,0,0,1,17.564,7Z" transform="translate(0 13.742)" fill="#d43a2f"/>
      <path id="Path_8053" d="M28.685,19.29C12.992,18.569,6.411,11.712,6.411,7.958c0-2.643,3.3-3.587,6.4-3.587C23.356,4.373,27.36,14.4,28.685,19.29ZM12.813-.043C4.834-.043,2,4.267,2,7.96,2,12.146,5.718,17.423,13.677,20.7a44.984,44.984,0,0,0,15.557,3.036v-1.3a2.668,2.668,0,0,1,.618-1.736,2.191,2.191,0,0,1,1.589-.737V13.733C28.543,7.012,22.761-.045,12.813-.045Z" transform="translate(3.89 0.045)" fill="#dea806"/>
      <path id="Path_8054" d="M13.459,13H11.25V45.378h2.209Z" transform="translate(21.874 25.408)" fill="#de7c00"/>
      <path id="Path_8055" d="M13.458,6.75a2.191,2.191,0,0,0-1.589.737,2.657,2.657,0,0,0-.618,1.736V25.153H13.46Z" transform="translate(21.875 13.255)" fill="#dea806"/>
    </g>
  </g>
</svg>
