<svg xmlns="http://www.w3.org/2000/svg" width="14.489" height="14.495" viewBox="0 0 14.489 14.495">
  <path id="Path_1896" data-name="Path 1896" d="M21.239,16.65V20.18a.557.557,0,0,1-.557.557H7.307a.557.557,0,0,1-.557-.557V6.805a.557.557,0,0,1,.557-.557h3.529a.557.557,0,0,1,0,1.115H7.865v12.26h12.26V16.65a.557.557,0,1,1,1.115,0ZM10.866,11.263l.03,4.8a.558.558,0,0,0,.557.554h4.77a.557.557,0,0,0,0-1.115H12.88l8.173-8.311a.558.558,0,1,0-.8-.783L12,14.82l-.022-3.555v0a.55.55,0,0,0-.55-.55h-.012a.557.557,0,0,0-.553.554Z" transform="translate(-6.75 -6.242)" fill="#fff8f2"/>
</svg>
